<?xml version="1.0" encoding="UTF-8"?><svg id="Layer_1" xmlns="http://www.w3.org/2000/svg" viewBox="0 0 840.43 216.37"><defs><style>.cls-1{fill:#1473e6;}.cls-2{opacity:.2;}</style></defs><g id="V4"><g><g class="cls-2"><path class="cls-1" d="M128.04,137.7c-.57-.47-1.2-.84-1.86-1.11-.66,.28-1.29,.64-1.87,1.11-3.78,3.1-3.78,8.85,0,11.95,.57,.47,1.2,.84,1.87,1.11,.66-.28,1.29-.64,1.87-1.11,3.78-3.1,3.78-8.85,0-11.95Z"/><path class="cls-1" d="M39.93,122.66c-.48,.43-.89,.93-1.23,1.48-.12,.19-.22,.39-.32,.58,.02,.03,.03,.06,.05,.09,1.89,3.53,6.31,5.03,9.96,3.37,1.65-.75,2.89-2,3.65-3.47-2.28-4.35-8.17-5.63-12.1-2.06Z"/><path class="cls-1" d="M109.08,62.08c-.04-.9-.25-1.79-.61-2.62-.52-1.19-1.29-2.18-2.23-2.95-1.12-.91-2.49-1.49-3.97-1.66-.52-.06-1.03-.06-1.54-.02-.76,.92-1.31,2.01-1.58,3.23-.94,4.35,1.97,8.55,6.3,9.25,.64,.1,1.27,.12,1.89,.07,1.15-1.4,1.83-3.24,1.74-5.3Z"/><path class="cls-1" d="M100.11,95.59c-7.46-3.78-16.34-.32-19.46,7.13,1.26,3.01,3.55,5.59,6.61,7.13,7.46,3.78,16.34,.32,19.46-7.13-1.26-3.01-3.55-5.59-6.61-7.13Z"/><path class="cls-1" d="M171.17,70.03c1.34,.28,2.7,.21,3.97-.21,1.16-.38,2.24-1.04,3.16-1.97,.52-.52,.95-1.13,1.29-1.78-.36-.69-.83-1.34-1.41-1.92-.65-.66-1.43-1.19-2.29-1.56-2.47-1.06-5.16-.82-7.33,.59-1.12,.73-2.01,1.72-2.62,2.88,1.09,2.07,2.98,3.49,5.23,3.96Z"/><path class="cls-1" d="M102.81,12.86c-.95-2.18-2.61-3.9-4.72-4.94-2.33,1.15-4.1,3.12-4.98,5.6-.76,2.13-.77,4.48-.02,6.61,.91,2.6,2.76,4.56,5.01,5.66,4.74-2.34,6.86-8.04,4.71-12.93Z"/><path class="cls-1" d="M15.63,62.64c-.35-.09-.7-.14-1.05-.14-.7,0-1.38,.18-2,.54h0c-.62,.36-1.12,.87-1.47,1.47,.54,.93,1.4,1.59,2.44,1.87,1.18,.32,2.43,.09,3.44-.66,.45-.33,.81-.75,1.08-1.22-.54-.93-1.4-1.59-2.44-1.87Z"/><path class="cls-1" d="M21.37,150.2c-.96-1.73-2.45-2.97-4.2-3.59-.63-.22-1.29-.36-1.98-.42-1.14-.09-2.27,.07-3.31,.47-.07,.18-.13,.36-.18,.55-.72,2.57-.12,5.2,1.55,7.15h0c1.68,1.97,4.2,2.96,6.87,2.64,.58-.07,1.14-.22,1.68-.42,.44-1.17,.6-2.46,.43-3.78-.12-.91-.41-1.8-.85-2.6Z"/><path class="cls-1" d="M98.9,199.11c-1.63-1-3.43-1.47-5.2-1.47-3.77,0-7.43,2.14-9.12,5.92,1.03,2.33,2.9,4.18,5.35,5.19,1.56,.64,3.27,.87,4.94,.66,3.23-.41,5.96-2.26,7.51-5.03,.15-.26,.28-.53,.4-.8-.79-1.8-2.1-3.38-3.88-4.47Z"/><path class="cls-1" d="M176.26,151.86c-.36-.62-.87-1.12-1.47-1.47-.93,.54-1.59,1.4-1.87,2.44-.32,1.19-.09,2.43,.66,3.44,.33,.45,.75,.81,1.22,1.08,.93-.54,1.59-1.4,1.87-2.44,.28-1.04,.14-2.12-.4-3.05Z"/></g><path class="cls-1" d="M179.99,75.17c.85-.49,1.67-1.07,2.43-1.73,1.91-1.67,3.35-3.83,4.16-6.24,1.45-4.33,.85-8.91-1.59-12.66-2.13-3.27-5.4-5.51-9.21-6.31-2.59-.55-5.16-.37-7.52,.4-1.15,.38-2.25,.89-3.26,1.54-2.01,1.27-4.58,1.25-6.63,.06l-43.28-24.99c-2.88-1.66-4.6-4.77-4.55-8.1,.04-2.49-.47-4.98-1.55-7.32-1.72-3.74-4.77-6.75-8.54-8.39-4.36-1.91-9.2-1.9-13.53,0-4.12,1.81-7.3,5.11-8.93,9.3-.8,2.06-1.19,4.2-1.16,6.35,.04,3.35-1.64,6.49-4.55,8.17L26.07,51.92c-2.21,1.28-4.91,1.51-7.27,.53-.45-.19-.91-.34-1.39-.47-2.81-.75-5.75-.37-8.27,1.09h0c-2.94,1.7-4.91,4.62-5.37,8.06-.24,1.81-.01,3.68,.67,5.38,.84,2.1,2.25,3.83,4.03,5.03,1.71,1.16,2.68,3.13,2.68,5.19v58.76c0,2.31-1.31,4.39-3.35,5.47-1.49,.79-2.86,1.84-4.04,3.14-1.76,1.93-2.97,4.33-3.47,6.9-.88,4.48,.31,8.95,3.22,12.35,1.72,2.01,3.87,3.44,6.2,4.26,2.67,.94,5.57,1.1,8.33,.43,1.16-.28,3.02-1.34,4.56-2.32,1.65-1.05,3.75-1.11,5.45-.13l44.16,25.49c2.93,1.69,4.67,4.84,4.63,8.22-.02,2.07,.34,4.16,1.1,6.18,1.14,3.03,3.14,5.69,5.76,7.6,2.98,2.18,6.45,3.29,9.98,3.29,1.98,0,3.99-.35,5.93-1.07,2.93-1.08,5.52-2.98,7.42-5.46,2.45-3.19,3.57-6.9,3.52-10.53-.05-3.41,1.79-6.58,4.75-8.29l46-26.56c2.23-1.29,4.94-1.52,7.31-.53,.44,.18,.9,.34,1.36,.46,.94,.25,1.89,.38,2.84,.38,2.51,0,4.98-.88,7.03-2.58,1.18-.98,2.14-2.22,2.79-3.6,1.57-3.35,1.4-7.08-.39-10.18-.62-1.08-1.41-2.02-2.32-2.81-2.32-2-3.68-4.9-3.68-7.97v-55.81c0-2.73,1.4-5.3,3.77-6.65ZM104.14,30.08l.05-.04c1.39-1.1,3.31-1.24,4.84-.35l46.42,26.86c.85,.49,.47,1.8-.51,1.76l-28.98-1.22c-2.67-.11-5.07-1.64-6.29-4.02-2.05-3.99-5.91-6.99-10.67-7.75h-.03c-1.96-.32-3.57-1.72-4.14-3.62l-2.12-6.99c-.51-1.69,.06-3.53,1.45-4.62Zm-4.99,27.99c.83-3.83,4.51-6.46,8.4-6.01,1.49,.17,2.85,.75,3.97,1.66,.94,.76,1.71,1.76,2.23,2.95,.36,.82,.57,1.72,.61,2.62,.23,5.06-4.19,8.78-8.91,8.02-4.33-.69-7.25-4.9-6.3-9.25Zm8.22,53.68c-2.3,8.75-12.04,13.13-20.12,9.04-5.88-2.98-8.94-9.78-7.26-16.15,2.3-8.75,12.04-13.13,20.12-9.04,5.88,2.98,8.94,9.78,7.26,16.15ZM84.3,13.52c1.08-3.04,3.51-5.33,6.67-6.25,1.64-.48,3.38-.51,5.04-.11,3.1,.76,5.56,2.84,6.81,5.7,2.2,5.03-.1,10.92-5.13,13.13h0c-5.27,2.31-11.48-.32-13.41-5.86-.74-2.13-.73-4.48,.02-6.61ZM24.23,67.59c.71-1.35,1.13-2.84,1.23-4.37,.13-1.94,1.2-3.7,2.88-4.67l49.15-28.38c1.98-1.14,4.45-1.01,6.3,.32,2.44,1.76,5.32,2.85,8.32,3.13,1.89,.18,3.49,1.47,4.05,3.29l2.15,7.1c.53,1.74-.01,3.62-1.37,4.83-2.41,2.16-4.13,5.12-4.68,8.56-.62,3.88,.35,7.65,2.44,10.64,.32,.47,1.1,1.24,1.96,2.02,1.81,1.65,2.56,4.17,1.92,6.53l-1.58,5.9c-.7,2.61-2.94,4.5-5.63,4.8-7.59,.85-14.45,5.81-17.34,13.42-.68,1.79-1.1,3.62-1.27,5.44-.24,2.54-2.09,4.63-4.55,5.29l-6.17,1.65c-2.21,.59-4.54-.13-6.1-1.81-2.45-2.66-5.79-4.28-9.3-4.63-3.33-.33-6.25-2.38-7.78-5.36l-14.63-28.4c-.86-1.67-.86-3.65,0-5.31Zm24.15,60.6c-3.65,1.65-8.06,.16-9.96-3.37-1.3-2.43-1.24-5.33,.28-7.79,.34-.55,.75-1.05,1.23-1.48,3.94-3.58,9.86-2.29,12.12,2.09,2.01,3.89,.37,8.72-3.67,10.55ZM11.11,64.51c-.54-.93-.68-2.01-.4-3.05,.28-1.04,.94-1.9,1.87-2.44h0c.62-.36,1.31-.54,2-.54,.35,0,.7,.05,1.05,.14,1.18,.32,2.15,1.14,2.65,2.29,.74,1.69,.19,3.73-1.29,4.82-1.01,.74-2.25,.97-3.44,.66-1.04-.28-1.9-.94-2.44-1.87Zm7.13,96.14c-.81,.45-1.71,.74-2.64,.85-2.67,.32-5.19-.67-6.87-2.64h0c-1.67-1.96-2.27-4.58-1.55-7.15,.26-.93,.7-1.8,1.3-2.56,1.66-2.1,4.13-3.17,6.7-2.97,.68,.05,1.35,.19,1.98,.42,1.75,.62,3.24,1.86,4.2,3.59,.45,.8,.74,1.69,.85,2.6,.42,3.25-1.12,6.28-3.98,7.86Zm5.03-21.09c-.84,.9-2.14,1.19-3.29,.74l-.04-.02c-1.15-.45-1.9-1.56-1.9-2.8v-57.74c0-.97,1.31-1.29,1.75-.42l12.94,25.13c1.53,2.96,1.53,6.52-.13,9.4-1.2,2.07-1.87,4.41-1.96,6.81-.05,1.45,.2,3.54,.78,5.38,.69,2.2,.2,4.6-1.38,6.28l-6.77,7.23Zm79.11,64.82c-1.55,2.78-4.28,4.62-7.51,5.03-1.67,.21-3.38-.02-4.94-.66-3.5-1.45-5.84-4.61-6.19-8.42-.12-1.35,.04-2.72,.49-4,1.49-4.31,5.42-6.78,9.47-6.78,1.77,0,3.57,.47,5.2,1.47,4.51,2.77,6.07,8.73,3.48,13.36Zm.57-25.86c-1.79,2.82-4.98,4.36-8.31,4.17-3.36-.18-6.71,.64-9.6,2.36-2.85,1.7-6.38,1.81-9.25,.15l-43.58-25.16c-1.82-1.05-2.91-3.08-2.66-5.16,.27-2.21-.31-4.3-1.11-6.08-.87-1.92-.47-4.17,.96-5.7l5.67-6.05c1.59-1.7,4-2.45,6.25-1.82,3.42,.95,7.19,.67,10.59-1.09,4.02-2.07,6.66-5.77,7.56-9.88,.48-2.21,2.21-3.93,4.39-4.52l6.22-1.67c2.42-.65,5.03,.23,6.48,2.28,2.33,3.29,5.62,5.95,9.67,7.48,5.05,1.92,10.39,1.76,15.06-.06,3.14-1.22,6.7-.43,9.08,1.95l2.4,2.4c2.11,2.11,2.97,5.16,2.26,8.06-.82,3.34-.44,6.91,1.12,10.03,1.33,2.65,1.11,5.81-.48,8.3l-12.71,20Zm55.14-20.16l-43.7,25.23c-2.19,1.27-4.64-1.21-3.35-3.39l11.07-18.72c1.29-2.18,3.7-3.41,6.23-3.26,4.01,.23,8.09-1.18,11.15-4.24l.03-.03c2.15-2.16,5.29-2.99,8.22-2.17,3.12,.87,6.97,1.95,9.89,2.8,1.74,.51,2.02,2.86,.45,3.77Zm-33.77-20.66c2.8-2.29,6.92-2.29,9.72,0,3.78,3.1,3.78,8.85,0,11.95-2.8,2.29-6.92,2.29-9.72,0-3.78-3.1-3.78-8.85,0-11.95Zm41.84,7.39s-.04,.04-.06,.05c-2.1,1.76-4.86,2.49-7.53,1.87l-9.42-2.2c-2.84-.66-5.19-2.73-6.06-5.51-.68-2.17-1.88-4.22-3.6-5.93-3.75-3.75-9.04-5.02-13.84-3.83-2.88,.71-5.93-.17-8.03-2.27l-2.33-2.33c-2.42-2.42-3.19-6.02-1.97-9.21l.02-.05c3.43-9.04,.2-18.99-7.25-24.44-2.17-1.59-3.13-4.35-2.44-6.95l1.51-5.62c.62-2.32,2.44-4.18,4.78-4.72,3.74-.87,7.01-3.19,9.06-6.43,1.44-2.28,3.96-3.64,6.65-3.53l28.74,1.21c2.25,.09,4.21,1.47,5.16,3.51,1.35,2.87,3.62,5.28,6.51,6.77,1.99,1.03,3.26,3.05,3.26,5.29v57.7c0,2.58-1.19,4.99-3.18,6.64Zm10.1,6.77c.54,.93,.68,2.01,.4,3.05-.32,1.18-1.14,2.15-2.28,2.65-1.69,.74-3.73,.2-4.82-1.29-.74-1.01-.97-2.25-.66-3.44,.28-1.04,.94-1.9,1.87-2.44,.62-.36,1.31-.54,2-.54,.35,0,.7,.05,1.05,.14,1.04,.28,1.9,.94,2.44,1.87Zm-1.11-82.03c-1.27,.41-2.63,.49-3.97,.21-2.52-.53-4.59-2.25-5.59-4.74-.36-.89-.54-1.86-.53-2.82,.04-2.67,1.35-5.02,3.51-6.43,2.17-1.41,4.86-1.66,7.33-.59,.85,.37,1.63,.9,2.29,1.56,2.3,2.32,2.92,5.65,1.62,8.65-.36,.82-.86,1.57-1.49,2.2-.92,.93-2,1.59-3.16,1.97Z"/></g><g id="name"><g><path class="cls-1" d="M311.28,63.72c-.42,1.68-.56,2.1-1.4,16.4l-.7,60.57c.14,8.55,.28,14.02,.56,16.55h-24.96v-.84c1.26-15,1.4-18.65,1.4-21.73v-24.82l-26.64,35.19-23.56-37.72v34.91l.56,8.97,.14,5.47,.14,.56h-23.84c.14-1.26,.14-1.96,.42-6.73,.42-6.45,.56-9.25,.56-13.18l.14-56.65c.14-2.38-.28-6.73-.84-12.2-.14-2.38-.28-3.22-.28-4.49h23.42l25.66,40.1,26.64-40.38h22.57Z"/><path class="cls-1" d="M402,77.74c7.85,8.83,11.5,19.07,11.5,32.39,0,27.2-22.01,49.22-49.08,49.22s-46.97-21.03-46.97-47.81,21.73-49.64,49.5-49.64c13.32,0,25.94,5.75,35.05,15.84Zm-54.26,15.84c-3.5,5.05-5.33,11.22-5.33,17.39,0,15,9.82,26.22,23,26.22s22.86-11.22,22.86-26.22-9.39-26.64-22.71-26.64c-7.85,0-13.32,2.8-17.81,9.25Z"/><path class="cls-1" d="M421.62,88.82c.14-4.77-.56-15-1.68-23.14,12.76-2.66,20.89-3.65,30.15-3.65,18.93,0,33.51,6.03,42.2,17.39,6.45,8.27,9.96,18.93,9.96,30.15,0,28.6-21.17,49.36-50.48,49.36-11.5,0-24.96-1.54-31.13-3.65,.56-4.07,.56-4.63,1.12-20.19l-.14-46.27Zm25.1,30.01c0,10.94,.14,15,.7,18.37,1.82,.28,3.08,.42,4.91,.42,15.56,0,24.26-9.53,24.26-26.64s-9.25-27.48-24.26-27.48c-2.1,0-3.5,.14-5.47,.56v.56l-.14,34.21Z"/><path class="cls-1" d="M592.12,63.72c-.28,2.52-.7,12.62-.7,15.98l-.42,39.12v.7c.14,13.74-2.24,21.17-8.27,27.76-7.29,7.71-18.51,11.92-32.25,11.92-18.37,0-31.41-6.73-37.02-19.07-2.38-5.05-3.22-9.96-3.22-17.11v-43.47c-.56-13.74-.7-14.16-.84-15.84l27.06-.14v.56c-.28,2.1-.42,4.07-.56,6.03-.42,3.51-.42,5.75-.42,8.55l-.14,40.94c0,6.03,.7,9.67,2.52,12.06,2.94,3.79,8.13,6.17,13.32,6.17,5.75,0,10.8-2.94,13.04-7.57,1.12-2.24,1.68-5.89,1.68-11.64l-.14-44.45c0-7.01,0-8.55-.28-10.38l26.64-.14Z"/><path class="cls-1" d="M629.98,63.72c-.42,4.35-.98,15.14-.84,18.65v39.82c0,2.1,.28,8.55,.42,13.18l21.31,.14c1.26,0,4.07-.14,7.85-.56,2.38-.14,3.65-.28,5.19-.28l-4.07,22.57h-56.65c.28-5.05,.28-7.43,.42-7.57,.28-5.33,.28-6.03,.28-7.29V76.48l-.28-8.27c-.14-3.08-.14-3.65-.28-4.49h26.64Z"/><path class="cls-1" d="M755.75,157.24h-27.62l-3.65-10.66h-30.71l-3.51,10.66h-26.5l37.58-93.94h16.97l37.44,93.94Zm-55.1-31.41h16.54l-8.55-24.82-7.99,24.82Z"/><path class="cls-1" d="M762.2,77.74c-.42-7.15-.84-11.22-.98-11.92,12.06-2.66,22.57-3.93,31.13-3.93,24.54,0,43.47,14.44,43.47,33.23,0,10.24-5.19,19.77-15.56,28.32l20.19,22.43-20.47,14.16-31.69-39.68c3.08-.7,6.87-2.52,10.38-4.63,8.27-5.19,11.78-10.38,11.78-17.53,0-8.41-6.87-14.58-15.98-14.58-1.96,0-3.65,.14-6.45,.7-.28,2.38-.56,9.39-.7,17.25l-.28,39.96c.42,10.1,.56,11.36,.98,15.7h-26.78c.56-5.33,.56-5.47,1.12-18.09l-.14-60.43v-.98Z"/></g></g></g></svg>