<?xml version="1.0" encoding="utf-8"?>
<!-- Generator: Adobe Illustrator 27.0.0, SVG Export Plug-In . SVG Version: 6.00 Build 0)  -->
<svg version="1.1" id="Layer_1" xmlns="http://www.w3.org/2000/svg" xmlns:xlink="http://www.w3.org/1999/xlink" x="0px" y="0px"
	 viewBox="0 0 230 230" style="enable-background:new 0 0 230 230;" xml:space="preserve">
<style type="text/css">
	.st0{opacity:0.2;}
	.st1{fill:#3366CC;}
</style>
<g id="V4_00000063607657561818972950000009756548482074407324_">
	<g>
		<g class="st0">
			<path class="st1" d="M149.36,144.51c-0.57-0.47-1.2-0.84-1.86-1.11c-0.66,0.28-1.29,0.64-1.87,1.11c-3.78,3.1-3.78,8.85,0,11.95
				c0.57,0.47,1.2,0.84,1.87,1.11c0.66-0.28,1.29-0.64,1.87-1.11C153.14,153.36,153.14,147.6,149.36,144.51z"/>
			<path class="st1" d="M61.25,129.48c-0.48,0.43-0.89,0.93-1.23,1.48c-0.12,0.19-0.22,0.39-0.32,0.58
				c0.02,0.03,0.03,0.06,0.05,0.09c1.89,3.53,6.31,5.03,9.96,3.37c1.65-0.75,2.89-2,3.65-3.47
				C71.08,127.18,65.19,125.9,61.25,129.48z"/>
			<path class="st1" d="M130.4,68.9c-0.04-0.9-0.25-1.79-0.61-2.62c-0.52-1.19-1.29-2.18-2.23-2.95c-1.12-0.91-2.49-1.49-3.97-1.66
				c-0.52-0.06-1.03-0.06-1.54-0.02c-0.76,0.92-1.31,2.01-1.58,3.23c-0.94,4.35,1.97,8.55,6.3,9.25c0.64,0.1,1.27,0.12,1.89,0.07
				C129.82,72.79,130.49,70.95,130.4,68.9z"/>
			<path class="st1" d="M121.43,102.4c-7.46-3.78-16.34-0.32-19.46,7.13c1.26,3.01,3.55,5.59,6.61,7.13
				c7.46,3.78,16.34,0.32,19.46-7.13C126.77,106.52,124.49,103.95,121.43,102.4z"/>
			<path class="st1" d="M192.5,76.85c1.34,0.28,2.7,0.21,3.97-0.21c1.16-0.38,2.24-1.04,3.16-1.97c0.52-0.52,0.95-1.13,1.29-1.78
				c-0.36-0.69-0.83-1.34-1.41-1.92c-0.65-0.66-1.43-1.19-2.29-1.56c-2.47-1.06-5.16-0.82-7.33,0.59c-1.12,0.73-2.01,1.72-2.62,2.88
				C188.36,74.95,190.25,76.37,192.5,76.85z"/>
			<path class="st1" d="M124.13,19.68c-0.95-2.18-2.61-3.9-4.72-4.94c-2.33,1.15-4.1,3.12-4.98,5.6c-0.76,2.13-0.77,4.48-0.02,6.61
				c0.91,2.6,2.76,4.56,5.01,5.66C124.16,30.27,126.28,24.57,124.13,19.68z"/>
			<path class="st1" d="M36.95,69.46c-0.35-0.09-0.7-0.14-1.05-0.14c-0.7,0-1.38,0.18-2,0.54v0c-0.62,0.36-1.12,0.87-1.47,1.47
				c0.54,0.93,1.4,1.59,2.44,1.87c1.18,0.32,2.43,0.09,3.44-0.66c0.45-0.33,0.81-0.75,1.08-1.22C38.85,70.4,37.99,69.73,36.95,69.46
				z"/>
			<path class="st1" d="M42.69,157.01c-0.96-1.73-2.45-2.97-4.2-3.59c-0.63-0.22-1.29-0.36-1.98-0.42
				c-1.14-0.09-2.27,0.07-3.31,0.47c-0.07,0.18-0.13,0.36-0.18,0.55c-0.72,2.57-0.12,5.2,1.55,7.15l0,0
				c1.68,1.97,4.2,2.96,6.87,2.64c0.58-0.07,1.14-0.22,1.68-0.42c0.44-1.17,0.6-2.46,0.43-3.78
				C43.43,158.7,43.14,157.81,42.69,157.01z"/>
			<path class="st1" d="M120.22,205.92c-1.63-1-3.43-1.47-5.2-1.47c-3.77,0-7.43,2.14-9.12,5.92c1.03,2.33,2.9,4.18,5.35,5.19
				c1.56,0.64,3.27,0.87,4.94,0.66c3.23-0.41,5.96-2.26,7.51-5.03c0.15-0.26,0.28-0.53,0.4-0.8
				C123.31,208.6,122,207.01,120.22,205.92z"/>
			<path class="st1" d="M197.58,158.67c-0.36-0.62-0.87-1.12-1.47-1.47c-0.93,0.54-1.59,1.4-1.87,2.44
				c-0.32,1.19-0.09,2.43,0.66,3.44c0.33,0.45,0.75,0.81,1.22,1.08c0.93-0.54,1.59-1.4,1.87-2.44
				C198.26,160.68,198.11,159.6,197.58,158.67z"/>
		</g>
		<path class="st1" d="M201.31,81.98c0.85-0.49,1.67-1.07,2.43-1.73c1.91-1.67,3.35-3.83,4.16-6.24c1.45-4.33,0.85-8.91-1.59-12.66
			c-2.13-3.27-5.4-5.51-9.21-6.31c-2.59-0.55-5.16-0.37-7.52,0.4c-1.15,0.38-2.25,0.89-3.26,1.54c-2.01,1.27-4.58,1.25-6.63,0.06
			l-43.28-24.99c-2.88-1.66-4.6-4.77-4.55-8.1c0.04-2.49-0.47-4.98-1.55-7.32c-1.72-3.74-4.77-6.75-8.54-8.39
			c-4.36-1.91-9.2-1.9-13.53,0c-4.12,1.81-7.3,5.11-8.93,9.3c-0.8,2.06-1.19,4.2-1.16,6.35c0.04,3.35-1.64,6.49-4.55,8.17
			L47.39,58.73c-2.21,1.28-4.91,1.51-7.27,0.53c-0.45-0.19-0.91-0.34-1.39-0.47c-2.81-0.75-5.75-0.37-8.27,1.09v0
			c-2.94,1.7-4.91,4.62-5.37,8.06c-0.24,1.81-0.01,3.68,0.67,5.38c0.84,2.1,2.25,3.83,4.03,5.03c1.71,1.16,2.68,3.13,2.68,5.19
			l0,58.76c0,2.31-1.31,4.39-3.35,5.47c-1.49,0.79-2.86,1.84-4.04,3.14c-1.76,1.93-2.97,4.33-3.47,6.9
			c-0.88,4.48,0.31,8.95,3.22,12.35c1.72,2.01,3.87,3.44,6.2,4.26c2.67,0.94,5.57,1.1,8.33,0.43c1.16-0.28,3.02-1.34,4.56-2.32
			c1.65-1.05,3.75-1.11,5.45-0.13l44.16,25.49c2.93,1.69,4.67,4.84,4.63,8.22c-0.02,2.07,0.34,4.16,1.1,6.18
			c1.14,3.03,3.14,5.69,5.76,7.6c2.98,2.18,6.45,3.29,9.98,3.29c1.98,0,3.99-0.35,5.93-1.07c2.93-1.08,5.52-2.98,7.42-5.46
			c2.45-3.19,3.57-6.9,3.52-10.53c-0.05-3.41,1.79-6.58,4.75-8.29l46-26.56c2.23-1.29,4.94-1.52,7.31-0.53
			c0.44,0.18,0.9,0.34,1.36,0.46c0.94,0.25,1.89,0.38,2.84,0.38c2.51,0,4.98-0.88,7.03-2.58c1.18-0.98,2.14-2.22,2.79-3.6
			c1.57-3.35,1.4-7.08-0.39-10.18c-0.62-1.08-1.41-2.02-2.32-2.81c-2.32-2-3.68-4.9-3.68-7.97V88.63
			C197.54,85.91,198.94,83.34,201.31,81.98z M125.46,36.89l0.05-0.04c1.39-1.1,3.31-1.24,4.84-0.35l46.42,26.86
			c0.85,0.49,0.47,1.8-0.51,1.76l-28.98-1.22c-2.67-0.11-5.07-1.64-6.29-4.02c-2.05-3.99-5.91-6.99-10.67-7.75l-0.03-0.01
			c-1.96-0.31-3.57-1.71-4.14-3.61l-2.12-6.99C123.5,39.82,124.07,37.99,125.46,36.89z M120.47,64.88c0.83-3.83,4.51-6.46,8.4-6.01
			c1.49,0.17,2.85,0.75,3.97,1.66c0.94,0.76,1.71,1.76,2.23,2.95c0.36,0.82,0.57,1.72,0.61,2.62c0.23,5.06-4.19,8.78-8.91,8.02
			C122.44,73.43,119.53,69.23,120.47,64.88z M128.69,118.56c-2.3,8.75-12.04,13.13-20.12,9.04c-5.88-2.98-8.94-9.78-7.26-16.15
			c2.3-8.75,12.04-13.13,20.12-9.04C127.32,105.38,130.37,112.18,128.69,118.56z M105.62,20.34c1.08-3.04,3.51-5.33,6.67-6.25
			c1.64-0.48,3.38-0.51,5.04-0.11c3.1,0.76,5.56,2.84,6.81,5.7c2.2,5.03-0.1,10.92-5.13,13.13l0,0c-5.27,2.31-11.48-0.32-13.41-5.86
			C104.85,24.81,104.86,22.46,105.62,20.34z M45.55,74.41c0.71-1.35,1.13-2.84,1.23-4.37c0.13-1.94,1.2-3.7,2.88-4.67l49.15-28.38
			c1.98-1.14,4.45-1.01,6.3,0.32c2.44,1.76,5.32,2.85,8.32,3.13c1.89,0.18,3.49,1.47,4.05,3.29l2.15,7.1
			c0.53,1.74-0.01,3.62-1.37,4.83c-2.41,2.16-4.13,5.12-4.68,8.56c-0.62,3.88,0.35,7.65,2.44,10.64c0.32,0.47,1.1,1.24,1.96,2.02
			c1.81,1.65,2.56,4.17,1.92,6.53l-1.58,5.9c-0.7,2.61-2.94,4.5-5.63,4.8c-7.59,0.85-14.45,5.81-17.34,13.42
			c-0.68,1.79-1.1,3.62-1.27,5.44c-0.24,2.54-2.09,4.63-4.55,5.29l-6.17,1.65c-2.21,0.59-4.54-0.13-6.1-1.81
			c-2.45-2.66-5.79-4.28-9.3-4.63c-3.33-0.33-6.25-2.38-7.78-5.36l-14.63-28.4C44.69,78.05,44.68,76.07,45.55,74.41z M69.7,135
			c-3.65,1.65-8.06,0.16-9.96-3.37c-1.3-2.43-1.24-5.33,0.28-7.79c0.34-0.55,0.75-1.05,1.23-1.48c3.94-3.58,9.86-2.29,12.12,2.09
			C75.38,128.35,73.74,133.17,69.7,135z M32.43,71.33c-0.54-0.93-0.68-2.01-0.4-3.05c0.28-1.04,0.94-1.9,1.87-2.44v0
			c0.62-0.36,1.31-0.54,2-0.54c0.35,0,0.7,0.05,1.05,0.14c1.18,0.32,2.15,1.14,2.65,2.29c0.74,1.69,0.19,3.73-1.29,4.82
			c-1.01,0.74-2.25,0.97-3.44,0.66C33.84,72.92,32.97,72.26,32.43,71.33z M39.56,167.47c-0.81,0.45-1.71,0.74-2.64,0.85
			c-2.67,0.32-5.19-0.67-6.87-2.64l0,0c-1.67-1.96-2.27-4.58-1.55-7.15c0.26-0.93,0.7-1.8,1.3-2.56c1.66-2.1,4.13-3.17,6.7-2.97
			c0.68,0.05,1.35,0.19,1.98,0.42c1.75,0.62,3.24,1.86,4.2,3.59c0.45,0.8,0.74,1.69,0.85,2.6
			C43.96,162.86,42.42,165.89,39.56,167.47z M44.59,146.38c-0.84,0.9-2.14,1.19-3.29,0.74l-0.04-0.02c-1.15-0.45-1.9-1.56-1.9-2.8
			V86.56c0-0.97,1.31-1.29,1.75-0.42l12.94,25.13c1.53,2.96,1.53,6.52-0.13,9.4c-1.2,2.07-1.87,4.41-1.96,6.81
			c-0.05,1.45,0.2,3.54,0.78,5.38c0.69,2.2,0.2,4.6-1.38,6.28L44.59,146.38z M123.7,211.19c-1.55,2.78-4.28,4.62-7.51,5.03
			c-1.67,0.21-3.38-0.02-4.94-0.66c-3.5-1.45-5.84-4.61-6.19-8.42c-0.12-1.35,0.04-2.72,0.49-4c1.49-4.31,5.42-6.78,9.47-6.78
			c1.77,0,3.57,0.47,5.2,1.47C124.74,200.61,126.29,206.57,123.7,211.19z M124.27,185.33c-1.79,2.82-4.98,4.36-8.31,4.17
			c-3.36-0.18-6.71,0.64-9.6,2.36c-2.85,1.7-6.38,1.81-9.25,0.15l-43.58-25.16c-1.82-1.05-2.91-3.08-2.66-5.16
			c0.27-2.21-0.31-4.3-1.11-6.08c-0.87-1.92-0.47-4.17,0.96-5.7l5.67-6.05c1.59-1.7,4-2.45,6.25-1.82
			c3.42,0.95,7.19,0.67,10.59-1.09c4.02-2.07,6.66-5.77,7.56-9.88c0.48-2.21,2.21-3.93,4.39-4.52l6.22-1.67
			c2.42-0.65,5.03,0.23,6.48,2.28c2.33,3.29,5.62,5.95,9.67,7.48c5.05,1.92,10.39,1.76,15.06-0.06c3.14-1.22,6.7-0.43,9.08,1.95
			l2.4,2.4c2.11,2.11,2.97,5.16,2.26,8.06c-0.82,3.34-0.44,6.91,1.12,10.03c1.33,2.65,1.11,5.81-0.48,8.3L124.27,185.33z
			 M179.4,165.17l-43.7,25.23c-2.19,1.27-4.64-1.21-3.35-3.39l11.07-18.72c1.29-2.18,3.7-3.41,6.23-3.26
			c4.01,0.23,8.09-1.18,11.15-4.24l0.03-0.03c2.15-2.16,5.29-2.99,8.22-2.17c3.12,0.87,6.97,1.95,9.89,2.8
			C180.7,161.91,180.98,164.26,179.4,165.17z M145.63,144.51c2.8-2.29,6.92-2.29,9.72,0c3.78,3.1,3.78,8.85,0,11.95
			c-2.8,2.29-6.92,2.29-9.72,0C141.85,153.36,141.85,147.6,145.63,144.51z M187.47,151.9c-0.02,0.02-0.04,0.04-0.06,0.05
			c-2.1,1.76-4.86,2.49-7.53,1.87l-9.42-2.2c-2.84-0.66-5.19-2.73-6.06-5.51c-0.68-2.17-1.88-4.22-3.6-5.93
			c-3.75-3.75-9.04-5.02-13.84-3.83c-2.88,0.71-5.93-0.17-8.03-2.27l-2.33-2.33c-2.42-2.42-3.19-6.02-1.97-9.21l0.02-0.05
			c3.43-9.04,0.2-18.99-7.25-24.44c-2.17-1.59-3.13-4.35-2.44-6.95l1.51-5.62c0.62-2.32,2.44-4.18,4.78-4.72
			c3.74-0.87,7.01-3.19,9.06-6.43c1.44-2.28,3.96-3.64,6.65-3.53l28.74,1.21c2.25,0.09,4.21,1.47,5.16,3.51
			c1.35,2.87,3.62,5.28,6.51,6.77c1.99,1.03,3.26,3.05,3.26,5.29v57.7C190.65,147.84,189.46,150.25,187.47,151.9z M197.58,158.67
			c0.54,0.93,0.68,2.01,0.4,3.05c-0.32,1.18-1.14,2.15-2.28,2.65c-1.69,0.74-3.73,0.2-4.82-1.29c-0.74-1.01-0.97-2.25-0.66-3.44
			c0.28-1.04,0.94-1.9,1.87-2.44c0.62-0.36,1.31-0.54,2-0.54c0.35,0,0.7,0.05,1.05,0.14C196.17,157.08,197.04,157.74,197.58,158.67z
			 M196.46,76.64c-1.27,0.41-2.63,0.49-3.97,0.21c-2.52-0.53-4.59-2.25-5.59-4.74c-0.36-0.89-0.54-1.86-0.53-2.82
			c0.04-2.67,1.35-5.02,3.51-6.43c2.17-1.41,4.86-1.66,7.33-0.59c0.85,0.37,1.63,0.9,2.29,1.56c2.3,2.32,2.92,5.65,1.62,8.65
			c-0.36,0.82-0.86,1.57-1.49,2.2C198.71,75.6,197.62,76.26,196.46,76.64z"/>
	</g>
</g>
</svg>
